<svg data-v-423bf9ae="" xmlns="http://www.w3.org/2000/svg" viewBox="0 0 395 90" class="iconLeft"><!----><!----><!----><g data-v-423bf9ae="" id="b0a0d4f5-bf1c-4714-b6a5-5e4c72d3d6bc" fill="white" transform="matrix(5.836575485636349,0,0,5.836575485636349,103.2879406146505,0.23346251939574358)"><path d="M8.97 12.67L7.40 12.67L2.24 4.47L2.28 5.13L2.31 6.28L2.31 12.67L1.15 12.67L1.15 3.04L2.67 3.04L7.88 11.30L7.88 11.30Q7.79 9.96 7.79 9.36L7.79 9.36L7.79 3.04L8.97 3.04L8.97 12.67ZM17.31 8.97L17.31 8.97L17.31 8.97Q17.31 10.91 16.45 11.86L16.45 11.86L16.45 11.86Q15.60 12.81 13.97 12.81L13.97 12.81L13.97 12.81Q12.35 12.81 11.53 11.82L11.53 11.82L11.53 11.82Q10.70 10.83 10.70 8.97L10.70 8.97L10.70 8.97Q10.70 5.14 14.01 5.14L14.01 5.14L14.01 5.14Q15.71 5.14 16.51 6.07L16.51 6.07L16.51 6.07Q17.31 7.01 17.31 8.97ZM16.02 8.97L16.02 8.97L16.02 8.97Q16.02 7.44 15.56 6.74L15.56 6.74L15.56 6.74Q15.11 6.05 14.03 6.05L14.03 6.05L14.03 6.05Q12.95 6.05 12.47 6.76L12.47 6.76L12.47 6.76Q11.99 7.46 11.99 8.97L11.99 8.97L11.99 8.97Q11.99 10.43 12.47 11.17L12.47 11.17L12.47 11.17Q12.94 11.90 13.96 11.90L13.96 11.90L13.96 11.90Q15.07 11.90 15.54 11.19L15.54 11.19L15.54 11.19Q16.02 10.48 16.02 8.97ZM26.50 9.96L26.50 9.96L26.50 9.96Q26.50 11.25 25.56 11.96L25.56 11.96L25.56 11.96Q24.62 12.67 22.96 12.67L22.96 12.67L19.04 12.67L19.04 3.04L22.54 3.04L22.54 3.04Q25.94 3.04 25.94 5.38L25.94 5.38L25.94 5.38Q25.94 6.23 25.46 6.82L25.46 6.82L25.46 6.82Q24.98 7.40 24.10 7.59L24.10 7.59L24.10 7.59Q25.25 7.73 25.87 8.36L25.87 8.36L25.87 8.36Q26.50 9.00 26.50 9.96ZM24.62 5.54L24.62 5.54L24.62 5.54Q24.62 4.76 24.09 4.42L24.09 4.42L24.09 4.42Q23.56 4.09 22.54 4.09L22.54 4.09L20.35 4.09L20.35 7.14L22.54 7.14L22.54 7.14Q23.59 7.14 24.11 6.74L24.11 6.74L24.11 6.74Q24.62 6.35 24.62 5.54ZM25.18 9.86L25.18 9.86L25.18 9.86Q25.18 8.16 22.78 8.16L22.78 8.16L20.35 8.16L20.35 11.63L22.89 11.63L22.89 11.63Q24.08 11.63 24.63 11.18L24.63 11.18L24.63 11.18Q25.18 10.74 25.18 9.86ZM30.06 12.81L30.06 12.81L30.06 12.81Q28.95 12.81 28.39 12.22L28.39 12.22L28.39 12.22Q27.83 11.63 27.83 10.61L27.83 10.61L27.83 10.61Q27.83 9.46 28.58 8.85L28.58 8.85L28.58 8.85Q29.34 8.23 31.02 8.19L31.02 8.19L32.68 8.16L32.68 7.76L32.68 7.76Q32.68 6.86 32.30 6.47L32.30 6.47L32.30 6.47Q31.92 6.08 31.10 6.08L31.10 6.08L31.10 6.08Q30.27 6.08 29.89 6.36L29.89 6.36L29.89 6.36Q29.52 6.64 29.44 7.25L29.44 7.25L28.16 7.14L28.16 7.14Q28.47 5.14 31.12 5.14L31.12 5.14L31.12 5.14Q32.52 5.14 33.22 5.78L33.22 5.78L33.22 5.78Q33.93 6.42 33.93 7.63L33.93 7.63L33.93 10.81L33.93 10.81Q33.93 11.36 34.07 11.64L34.07 11.64L34.07 11.64Q34.21 11.92 34.62 11.92L34.62 11.92L34.62 11.92Q34.79 11.92 35.02 11.87L35.02 11.87L35.02 12.63L35.02 12.63Q34.56 12.74 34.07 12.74L34.07 12.74L34.07 12.74Q33.39 12.74 33.08 12.38L33.08 12.38L33.08 12.38Q32.76 12.02 32.72 11.26L32.72 11.26L32.68 11.26L32.68 11.26Q32.21 12.11 31.59 12.46L31.59 12.46L31.59 12.46Q30.96 12.81 30.06 12.81ZM30.34 11.89L30.34 11.89L30.34 11.89Q31.02 11.89 31.55 11.58L31.55 11.58L31.55 11.58Q32.07 11.27 32.38 10.74L32.38 10.74L32.38 10.74Q32.68 10.20 32.68 9.63L32.68 9.63L32.68 9.02L31.34 9.05L31.34 9.05Q30.47 9.06 30.02 9.23L30.02 9.23L30.02 9.23Q29.57 9.39 29.33 9.73L29.33 9.73L29.33 9.73Q29.09 10.08 29.09 10.63L29.09 10.63L29.09 10.63Q29.09 11.23 29.42 11.56L29.42 11.56L29.42 11.56Q29.74 11.89 30.34 11.89ZM41.90 12.67L40.66 12.67L40.66 7.98L40.66 7.98Q40.66 7.25 40.52 6.85L40.52 6.85L40.52 6.85Q40.37 6.45 40.06 6.27L40.06 6.27L40.06 6.27Q39.74 6.09 39.14 6.09L39.14 6.09L39.14 6.09Q38.25 6.09 37.73 6.70L37.73 6.70L37.73 6.70Q37.22 7.31 37.22 8.39L37.22 8.39L37.22 12.67L35.99 12.67L35.99 6.86L35.99 6.86Q35.99 5.56 35.95 5.28L35.95 5.28L37.11 5.28L37.11 5.28Q37.12 5.31 37.13 5.46L37.13 5.46L37.13 5.46Q37.13 5.61 37.14 5.81L37.14 5.81L37.14 5.81Q37.15 6.00 37.17 6.54L37.17 6.54L37.19 6.54L37.19 6.54Q37.61 5.78 38.17 5.46L38.17 5.46L38.17 5.46Q38.73 5.14 39.55 5.14L39.55 5.14L39.55 5.14Q40.77 5.14 41.33 5.75L41.33 5.75L41.33 5.75Q41.90 6.35 41.90 7.75L41.90 7.75L41.90 12.67ZM49.83 12.67L48.38 12.67L45.88 9.30L44.98 10.04L44.98 12.67L43.75 12.67L43.75 2.53L44.98 2.53L44.98 8.87L48.23 5.28L49.67 5.28L46.67 8.46L49.83 12.67Z"></path></g><!----><g data-v-423bf9ae="" id="a155439a-a48d-460d-88ee-dc3146fbbbfd" transform="matrix(2.8125,0,0,2.8125,0,0)" stroke="none" fill="white"><path d="M11.579 32H32L21.789 14.314z"></path><circle cx="8.683" cy="8.683" r="8.683"></circle></g><!----></svg>