<?xml version="1.0" standalone="no"?>
<!DOCTYPE svg PUBLIC "-//W3C//DTD SVG 20010904//EN"
 "http://www.w3.org/TR/2001/REC-SVG-20010904/DTD/svg10.dtd">
<svg version="1.0" xmlns="http://www.w3.org/2000/svg"
 width="666.000000pt" height="666.000000pt" viewBox="0 0 666.000000 666.000000"
 preserveAspectRatio="xMidYMid meet">
<metadata>
Created by potrace 1.11, written by Peter Selinger 2001-2013
</metadata>
<g transform="translate(0.000000,666.000000) scale(0.100000,-0.100000)"
fill="#000000" stroke="none">
<path d="M1795 5930 c-22 -5 -56 -11 -75 -14 -132 -21 -331 -95 -455 -168
-387 -229 -639 -606 -702 -1051 -10 -70 -10 -318 0 -387 44 -302 184 -585 397
-800 93 -95 125 -123 225 -192 224 -155 541 -249 823 -243 274 6 543 90 767
239 33 22 62 42 65 45 3 4 23 20 45 36 50 37 156 143 211 210 325 398 410 969
214 1444 -190 463 -594 784 -1100 876 -54 10 -370 13 -415 5z"/>
<path d="M4045 3403 c-133 -230 -91 -158 -496 -860 -197 -342 -367 -637 -377
-655 -74 -129 -660 -1143 -683 -1180 -16 -27 -25 -48 -21 -49 40 -2 3354 0
3357 3 2 2 -24 51 -57 108 -33 58 -69 120 -79 138 -72 125 -106 184 -182 315
-48 82 -87 150 -87 152 0 2 -17 32 -39 67 -21 35 -109 187 -196 338 -178 310
-402 697 -434 750 -11 19 -24 42 -28 50 -4 8 -27 49 -51 90 -43 71 -58 98
-100 173 -72 126 -407 705 -416 718 -9 14 -28 -13 -111 -158z"/>
</g>
</svg>
